<mxfile host="drawio-plugin" modified="2021-07-12T01:23:47.595Z" agent="5.0 (Macintosh; Intel Mac OS X 11_2_1) AppleWebKit/537.36 (KHTML, like Gecko) Chrome/89.0.4389.90 Safari/537.36" etag="b0ih_OeMdKLX9G1Sxp5k" version="14.7.4" type="embed"><diagram id="TYB7NlHMd5oe03PsHszr" name="Page-1"><mxGraphModel dx="904" dy="1761" grid="1" gridSize="10" guides="1" tooltips="1" connect="1" arrows="1" fold="1" page="1" pageScale="1" pageWidth="850" pageHeight="1100" math="0" shadow="0"><root><mxCell id="0"/><mxCell id="1" parent="0"/><mxCell id="10" style="edgeStyle=orthogonalEdgeStyle;rounded=0;orthogonalLoop=1;jettySize=auto;html=1;exitX=0.5;exitY=1;exitDx=0;exitDy=0;exitPerimeter=0;entryX=0.5;entryY=0;entryDx=0;entryDy=0;entryPerimeter=0;" edge="1" parent="1" source="2" target="8"><mxGeometry relative="1" as="geometry"/></mxCell><mxCell id="2" value="Bar (constructor)" style="strokeWidth=2;html=1;shape=mxgraph.flowchart.start_1;whiteSpace=wrap;" parent="1" vertex="1"><mxGeometry x="145" y="130" width="100" height="60" as="geometry"/></mxCell><mxCell id="3" value="String name&lt;br&gt;int value&lt;br&gt;String category" style="shape=parallelogram;html=1;strokeWidth=2;perimeter=parallelogramPerimeter;whiteSpace=wrap;rounded=1;arcSize=12;size=0.23;" parent="1" vertex="1"><mxGeometry x="125" y="398" width="140" height="60" as="geometry"/></mxCell><mxCell id="14" style="edgeStyle=orthogonalEdgeStyle;rounded=0;orthogonalLoop=1;jettySize=auto;html=1;exitX=0.5;exitY=1;exitDx=0;exitDy=0;entryX=0.5;entryY=0;entryDx=0;entryDy=0;entryPerimeter=0;" edge="1" parent="1" source="5" target="13"><mxGeometry relative="1" as="geometry"/></mxCell><mxCell id="5" value="&lt;pre style=&quot;background-color: #ffffff ; color: #000000 ; font-family: &amp;quot;jetbrains mono&amp;quot; , monospace ; font-size: 9.8pt&quot;&gt;&lt;span style=&quot;color: #660e7a ; font-weight: bold&quot;&gt;na &lt;/span&gt;= name;&lt;br&gt;&lt;span style=&quot;color: #660e7a ; font-weight: bold&quot;&gt;va &lt;/span&gt;= value;&lt;br&gt;&lt;span style=&quot;color: #660e7a ; font-weight: bold&quot;&gt;ca &lt;/span&gt;= category;&lt;br&gt;&lt;/pre&gt;" style="rounded=1;whiteSpace=wrap;html=1;absoluteArcSize=1;arcSize=14;strokeWidth=2;" vertex="1" parent="1"><mxGeometry x="125" y="518" width="140" height="100" as="geometry"/></mxCell><mxCell id="6" value="" style="endArrow=classic;html=1;entryX=0.5;entryY=0;entryDx=0;entryDy=0;" edge="1" parent="1" target="5"><mxGeometry width="50" height="50" relative="1" as="geometry"><mxPoint x="195" y="458" as="sourcePoint"/><mxPoint x="195" y="528.7106781186548" as="targetPoint"/></mxGeometry></mxCell><mxCell id="11" value="no" style="edgeStyle=orthogonalEdgeStyle;rounded=0;orthogonalLoop=1;jettySize=auto;html=1;exitX=0.5;exitY=1;exitDx=0;exitDy=0;exitPerimeter=0;entryX=0.5;entryY=0;entryDx=0;entryDy=0;" edge="1" parent="1" source="8" target="3"><mxGeometry relative="1" as="geometry"/></mxCell><mxCell id="8" value="&lt;pre style=&quot;background-color: #ffffff ; color: #000000 ; font-family: &amp;#34;jetbrains mono&amp;#34; , monospace ; font-size: 9.8pt&quot;&gt;name==&lt;span style=&quot;color: #000080 ; font-weight: bold&quot;&gt;null &lt;/span&gt;&lt;/pre&gt;&lt;pre style=&quot;background-color: #ffffff ; color: #000000 ; font-family: &amp;#34;jetbrains mono&amp;#34; , monospace ; font-size: 9.8pt&quot;&gt;|| value &amp;lt; &lt;span style=&quot;color: #0000ff&quot;&gt;0 &lt;/span&gt;&lt;/pre&gt;&lt;pre style=&quot;background-color: #ffffff ; color: #000000 ; font-family: &amp;#34;jetbrains mono&amp;#34; , monospace ; font-size: 9.8pt&quot;&gt;|| category==&lt;span style=&quot;color: #000080 ; font-weight: bold&quot;&gt;null&lt;/span&gt;&lt;/pre&gt;" style="strokeWidth=2;html=1;shape=mxgraph.flowchart.decision;whiteSpace=wrap;" vertex="1" parent="1"><mxGeometry x="55" y="210" width="280" height="150" as="geometry"/></mxCell><mxCell id="13" value="end" style="strokeWidth=2;html=1;shape=mxgraph.flowchart.terminator;whiteSpace=wrap;" vertex="1" parent="1"><mxGeometry x="145" y="680" width="100" height="30" as="geometry"/></mxCell><mxCell id="15" value="&lt;pre style=&quot;background-color: #ffffff ; color: #000000 ; font-family: &amp;quot;jetbrains mono&amp;quot; , monospace ; font-size: 9.8pt&quot;&gt;&lt;span style=&quot;color: #000080 ; font-weight: bold&quot;&gt;private final &lt;/span&gt;String &lt;span style=&quot;color: #660e7a ; font-weight: bold&quot;&gt;na&lt;/span&gt;, &lt;span style=&quot;color: #660e7a ; font-weight: bold&quot;&gt;ca&lt;/span&gt;;&lt;br&gt;&lt;span style=&quot;color: #000080 ; font-weight: bold&quot;&gt;private final int &lt;/span&gt;&lt;span style=&quot;color: #660e7a ; font-weight: bold&quot;&gt;va&lt;/span&gt;;&lt;br&gt;&lt;/pre&gt;" style="rounded=1;whiteSpace=wrap;html=1;absoluteArcSize=1;arcSize=14;strokeWidth=2;" vertex="1" parent="1"><mxGeometry x="30" y="-50" width="280" height="100" as="geometry"/></mxCell><mxCell id="20" style="edgeStyle=orthogonalEdgeStyle;rounded=0;orthogonalLoop=1;jettySize=auto;html=1;exitX=0.5;exitY=1;exitDx=0;exitDy=0;exitPerimeter=0;entryX=0.5;entryY=0;entryDx=0;entryDy=0;" edge="1" parent="1" source="16" target="19"><mxGeometry relative="1" as="geometry"/></mxCell><mxCell id="16" value="&lt;pre style=&quot;background-color: #ffffff ; color: #000000 ; font-family: &amp;quot;jetbrains mono&amp;quot; , monospace ; font-size: 9.8pt&quot;&gt;getName&lt;/pre&gt;" style="strokeWidth=2;html=1;shape=mxgraph.flowchart.start_1;whiteSpace=wrap;" vertex="1" parent="1"><mxGeometry x="440" y="-30" width="100" height="60" as="geometry"/></mxCell><mxCell id="17" value="&lt;pre style=&quot;background-color: #ffffff ; color: #000000 ; font-family: &amp;quot;jetbrains mono&amp;quot; , monospace ; font-size: 9.8pt&quot;&gt;getValue&lt;/pre&gt;" style="strokeWidth=2;html=1;shape=mxgraph.flowchart.start_1;whiteSpace=wrap;" vertex="1" parent="1"><mxGeometry x="580" y="-30" width="100" height="60" as="geometry"/></mxCell><mxCell id="18" value="&lt;pre style=&quot;background-color: #ffffff ; color: #000000 ; font-family: &amp;quot;jetbrains mono&amp;quot; , monospace ; font-size: 9.8pt&quot;&gt;getCategory&lt;/pre&gt;" style="strokeWidth=2;html=1;shape=mxgraph.flowchart.start_1;whiteSpace=wrap;" vertex="1" parent="1"><mxGeometry x="720" y="-30" width="100" height="60" as="geometry"/></mxCell><mxCell id="19" value="&lt;pre style=&quot;background-color: rgb(255 , 255 , 255) ; font-family: &amp;#34;jetbrains mono&amp;#34; , monospace ; font-size: 9.8pt&quot;&gt;&lt;span style=&quot;color: #000080 ; font-weight: bold&quot;&gt;return &lt;/span&gt;&lt;span style=&quot;color: #660e7a ; font-weight: bold&quot;&gt;na&lt;/span&gt;;&lt;br&gt;&lt;/pre&gt;" style="shape=parallelogram;html=1;strokeWidth=2;perimeter=parallelogramPerimeter;whiteSpace=wrap;rounded=1;arcSize=12;size=0.23;" vertex="1" parent="1"><mxGeometry x="430" y="70" width="120" height="60" as="geometry"/></mxCell><mxCell id="21" style="edgeStyle=orthogonalEdgeStyle;rounded=0;orthogonalLoop=1;jettySize=auto;html=1;exitX=0.5;exitY=1;exitDx=0;exitDy=0;exitPerimeter=0;entryX=0.5;entryY=0;entryDx=0;entryDy=0;" edge="1" parent="1" target="22"><mxGeometry relative="1" as="geometry"><mxPoint x="630" y="30" as="sourcePoint"/></mxGeometry></mxCell><mxCell id="22" value="&lt;pre style=&quot;background-color: rgb(255 , 255 , 255) ; font-family: &amp;#34;jetbrains mono&amp;#34; , monospace ; font-size: 9.8pt&quot;&gt;&lt;span style=&quot;color: #000080 ; font-weight: bold&quot;&gt;return &lt;/span&gt;&lt;span style=&quot;color: #660e7a ; font-weight: bold&quot;&gt;va&lt;/span&gt;;&lt;br&gt;&lt;/pre&gt;" style="shape=parallelogram;html=1;strokeWidth=2;perimeter=parallelogramPerimeter;whiteSpace=wrap;rounded=1;arcSize=12;size=0.23;" vertex="1" parent="1"><mxGeometry x="570" y="70" width="120" height="60" as="geometry"/></mxCell><mxCell id="23" style="edgeStyle=orthogonalEdgeStyle;rounded=0;orthogonalLoop=1;jettySize=auto;html=1;exitX=0.5;exitY=1;exitDx=0;exitDy=0;exitPerimeter=0;entryX=0.5;entryY=0;entryDx=0;entryDy=0;" edge="1" parent="1" target="24"><mxGeometry relative="1" as="geometry"><mxPoint x="770" y="30" as="sourcePoint"/></mxGeometry></mxCell><mxCell id="24" value="&lt;pre style=&quot;background-color: rgb(255 , 255 , 255) ; font-family: &amp;#34;jetbrains mono&amp;#34; , monospace ; font-size: 9.8pt&quot;&gt;&lt;span style=&quot;color: #000080 ; font-weight: bold&quot;&gt;return &lt;/span&gt;&lt;span style=&quot;color: #660e7a ; font-weight: bold&quot;&gt;ca&lt;/span&gt;;&lt;br&gt;&lt;/pre&gt;" style="shape=parallelogram;html=1;strokeWidth=2;perimeter=parallelogramPerimeter;whiteSpace=wrap;rounded=1;arcSize=12;size=0.23;" vertex="1" parent="1"><mxGeometry x="710" y="70" width="120" height="60" as="geometry"/></mxCell><mxCell id="25" style="edgeStyle=orthogonalEdgeStyle;rounded=0;orthogonalLoop=1;jettySize=auto;html=1;exitX=0.5;exitY=1;exitDx=0;exitDy=0;exitPerimeter=0;entryX=0.5;entryY=0;entryDx=0;entryDy=0;" edge="1" parent="1" source="26" target="27"><mxGeometry relative="1" as="geometry"/></mxCell><mxCell id="26" value="&lt;pre style=&quot;background-color: #ffffff ; color: #000000 ; font-family: &amp;#34;jetbrains mono&amp;#34; , monospace ; font-size: 9.8pt&quot;&gt;compareTo&lt;/pre&gt;" style="strokeWidth=2;html=1;shape=mxgraph.flowchart.start_1;whiteSpace=wrap;" vertex="1" parent="1"><mxGeometry x="440" y="190" width="100" height="60" as="geometry"/></mxCell><mxCell id="27" value="&lt;pre style=&quot;background-color: rgb(255 , 255 , 255) ; font-family: &amp;#34;jetbrains mono&amp;#34; , monospace ; font-size: 9.8pt&quot;&gt;&lt;pre style=&quot;font-family: &amp;#34;jetbrains mono&amp;#34; , monospace ; font-size: 9.8pt&quot;&gt;&lt;span style=&quot;color: #000080 ; font-weight: bold&quot;&gt;return &lt;/span&gt;&lt;/pre&gt;&lt;pre style=&quot;font-family: &amp;#34;jetbrains mono&amp;#34; , monospace ; font-size: 9.8pt&quot;&gt;&lt;span style=&quot;color: #000080 ; font-weight: bold&quot;&gt;this&lt;/span&gt;.&lt;span style=&quot;color: #660e7a ; font-weight: bold&quot;&gt;va &lt;/span&gt;- that.&lt;span style=&quot;color: #660e7a ; font-weight: bold&quot;&gt;va&lt;/span&gt;;&lt;br&gt;&lt;/pre&gt;&lt;/pre&gt;" style="shape=parallelogram;html=1;strokeWidth=2;perimeter=parallelogramPerimeter;whiteSpace=wrap;rounded=1;arcSize=12;size=0.23;" vertex="1" parent="1"><mxGeometry x="390" y="290" width="200" height="90" as="geometry"/></mxCell></root></mxGraphModel></diagram></mxfile>